<svg width="158" height="24" viewBox="0 0 158 24" fill="none" xmlns="http://www.w3.org/2000/svg">
<path d="M11.32 16.84C11.32 15.636 10.564 14.992 9.22 14.992H6.056V18.576H9.248C10.62 18.576 11.32 18.016 11.32 16.84ZM10.9 9.392C10.9 8.216 10.172 7.628 8.828 7.628H6.056V11.1H8.828C10.172 11.1 10.9 10.54 10.9 9.392ZM16.948 17.624C16.948 20.956 14.568 23 10.34 23H0.568V3.26H10.032C14.036 3.26 16.5 5.108 16.5 8.384C16.5 10.764 15.1 12.332 13.168 12.864C15.52 13.396 16.948 15.384 16.948 17.624ZM26.4092 11.436C25.0932 11.436 24.1692 12.164 23.9172 13.592H28.7612C28.7612 12.192 27.6692 11.436 26.4092 11.436ZM34.0252 17.568C33.2972 20.788 30.3572 23.196 26.4372 23.196C21.7892 23.196 18.4572 20.144 18.4572 15.132C18.4572 10.148 21.7332 7.096 26.4372 7.096C31.0852 7.096 34.3612 10.092 34.3612 14.964C34.3612 15.384 34.3332 15.832 34.2772 16.252H23.8892C24.0012 18.072 24.9812 18.8 26.2132 18.8C27.2772 18.8 27.8652 18.212 28.1732 17.568H34.0252ZM42.0951 16.728L35.1511 3.26H41.4231L44.8951 10.876L48.3671 3.26H54.5551L47.6111 16.728V23H42.0951V16.728ZM71.8079 15.132C71.8079 20.144 68.2239 23.196 63.5479 23.196C58.8719 23.196 55.3439 20.144 55.3439 15.132C55.3439 10.148 58.8999 7.096 63.5759 7.096C68.2519 7.096 71.8079 10.148 71.8079 15.132ZM60.9439 15.132C60.9439 17.4 62.1199 18.436 63.5479 18.436C64.9479 18.436 66.2359 17.4 66.2359 15.132C66.2359 12.892 64.9759 11.856 63.5759 11.856C62.1759 11.856 60.9439 12.892 60.9439 15.132ZM90.1127 7.292V23H84.5967V20.76C83.7007 22.104 82.0487 23.14 79.8367 23.14C76.1967 23.14 73.9287 20.564 73.9287 16.42V7.292H79.3887V15.72C79.3887 17.54 80.4247 18.604 81.9927 18.604C83.5887 18.604 84.5967 17.54 84.5967 15.72V7.292H90.1127ZM98.724 16.14V23H93.236V7.292H98.724V10.064C99.9 8.356 101.692 7.152 103.792 7.152V13.004H102.252C99.984 13.004 98.724 13.732 98.724 16.14ZM120.571 17.008C120.571 20.48 117.883 23.196 113.207 23.196C108.811 23.196 105.395 21.096 105.171 16.868H111.023C111.135 18.352 112.003 18.856 113.011 18.856C113.991 18.856 114.747 18.352 114.747 17.428C114.719 14.264 105.143 15.748 105.227 8.888C105.227 5.024 108.447 2.952 112.619 2.952C117.155 2.952 120.123 5.164 120.319 9.084H114.355C114.299 7.852 113.543 7.292 112.535 7.292C111.723 7.264 111.079 7.74 111.079 8.692C111.079 11.632 120.571 10.68 120.571 17.008ZM130.179 11.436C128.863 11.436 127.939 12.164 127.687 13.592H132.531C132.531 12.192 131.439 11.436 130.179 11.436ZM137.795 17.568C137.067 20.788 134.127 23.196 130.207 23.196C125.559 23.196 122.227 20.144 122.227 15.132C122.227 10.148 125.503 7.096 130.207 7.096C134.855 7.096 138.131 10.092 138.131 14.964C138.131 15.384 138.103 15.832 138.047 16.252H127.659C127.771 18.072 128.751 18.8 129.983 18.8C131.047 18.8 131.635 18.212 131.943 17.568H137.795ZM140.377 23V2.28H145.865V23H140.377ZM149.494 23V11.856H147.786V7.292H149.494V7.152C149.494 2.812 152.322 0.571998 157.418 0.935999V5.612C155.766 5.444 155.094 5.892 155.01 7.292H157.474V11.856H155.01V23H149.494Z" fill="white"/>
</svg>
