<svg width="46" height="46" viewBox="0 0 46 46" fill="none" xmlns="http://www.w3.org/2000/svg">
<g clip-path="url(#clip0_81_1439)">
<mask id="mask0_81_1439" style="mask-type:alpha" maskUnits="userSpaceOnUse" x="0" y="0" width="46" height="46">
<path d="M23 46C35.7025 46 46 35.7025 46 23C46 10.2975 35.7025 0 23 0C10.2975 0 0 10.2975 0 23C0 35.7025 10.2975 46 23 46Z" fill="#E6D3F8"/>
</mask>
<g mask="url(#mask0_81_1439)">
<path d="M23 46C35.7025 46 46 35.7025 46 23C46 10.2975 35.7025 0 23 0C10.2975 0 0 10.2975 0 23C0 35.7025 10.2975 46 23 46Z" fill="#E0F4FF"/>
<path d="M23 28C28.5228 28 33 23.5228 33 18C33 12.4772 28.5228 8 23 8C17.4772 8 13 12.4772 13 18C13 23.5228 17.4772 28 23 28Z" fill="#5EC1F9"/>
<path d="M23 67C34.598 67 44 59.3888 44 50C44 40.6112 34.598 33 23 33C11.402 33 2 40.6112 2 50C2 59.3888 11.402 67 23 67Z" fill="#5EC1F9"/>
</g>
</g>
<defs>
<clipPath id="clip0_81_1439">
<rect width="46" height="46" fill="white"/>
</clipPath>
</defs>
</svg>
