<svg width="153" height="23" viewBox="0 0 153 23" fill="none" xmlns="http://www.w3.org/2000/svg">
<path d="M11.244 16.512C11.244 14.356 9.62 13.012 7.128 13.012H2.704V19.9H7.212C9.732 19.9 11.244 18.64 11.244 16.512ZM10.74 7.748C10.74 5.816 9.424 4.584 6.932 4.584H2.704V10.912H6.988C9.368 10.912 10.74 9.736 10.74 7.748ZM13.792 16.764C13.792 19.704 11.468 22 7.436 22H0.156V2.484H7.156C11.272 2.484 13.344 4.724 13.344 7.44C13.344 9.904 11.804 11.332 9.928 11.948C12.056 12.312 13.792 14.356 13.792 16.764ZM23.8519 8.56C21.3599 8.56 19.2879 10.212 19.0079 13.208H28.6959C28.7239 10.212 26.4839 8.56 23.8519 8.56ZM31.0199 17.268C30.2359 20.068 27.7719 22.252 23.9639 22.252C19.5959 22.252 16.3759 19.172 16.3759 14.3C16.3759 9.456 19.4839 6.404 23.9639 6.404C28.4159 6.404 31.3279 9.54 31.3279 13.74C31.3279 14.3 31.2999 14.748 31.2439 15.28H18.9799C19.1759 18.388 21.3599 20.096 23.9639 20.096C26.2599 20.096 27.7159 18.92 28.2759 17.268H31.0199ZM39.5912 15.728L32.6472 2.26H38.9192L42.3912 9.876L45.8632 2.26H52.0512L45.1072 15.728V22H39.5912V15.728ZM69.304 14.132C69.304 19.144 65.72 22.196 61.044 22.196C56.368 22.196 52.84 19.144 52.84 14.132C52.84 9.148 56.396 6.096 61.072 6.096C65.748 6.096 69.304 9.148 69.304 14.132ZM58.44 14.132C58.44 16.4 59.616 17.436 61.044 17.436C62.444 17.436 63.732 16.4 63.732 14.132C63.732 11.892 62.472 10.856 61.072 10.856C59.672 10.856 58.44 11.892 58.44 14.132ZM87.6088 6.292V22H82.0928V19.76C81.1968 21.104 79.5448 22.14 77.3328 22.14C73.6928 22.14 71.4248 19.564 71.4248 15.42V6.292H76.8848V14.72C76.8848 16.54 77.9208 17.604 79.4888 17.604C81.0848 17.604 82.0928 16.54 82.0928 14.72V6.292H87.6088ZM96.2201 15.14V22H90.7321V6.292H96.2201V9.064C97.3961 7.356 99.1881 6.152 101.288 6.152V12.004H99.7481C97.4801 12.004 96.2201 12.732 96.2201 15.14ZM115.968 16.848C115.856 19.9 113.196 22.196 109.079 22.196C105.244 22.196 102.64 20.096 103.004 16.792H105.524C105.412 18.444 106.504 20.124 109.192 20.124C111.628 20.124 113.224 19.032 113.336 17.044C113.644 12.34 104.012 13.936 104.208 7.748C104.236 4.444 107.008 2.232 110.956 2.232C114.876 2.232 117.088 4.388 116.948 7.244H114.288C114.4 5.816 113.252 4.332 110.816 4.332C108.52 4.332 106.896 5.452 106.784 7.328C106.504 11.752 116.276 10.492 115.968 16.848ZM127.616 8.56C125.096 8.56 122.688 10.268 121.904 13.348H131.62C132.18 10.212 130.248 8.56 127.616 8.56ZM133.244 17.268C131.956 20.068 129.128 22.252 125.32 22.252C120.952 22.252 118.236 19.172 119.104 14.3C119.972 9.456 123.64 6.404 128.092 6.404C132.544 6.404 134.924 9.54 134.196 13.684C134.112 14.216 134 14.664 133.832 15.196H121.568C121.176 18.332 123.052 20.096 125.712 20.096C128.008 20.096 129.66 18.92 130.5 17.268H133.244ZM136.076 22L139.744 1.28H142.292L138.624 22H136.076ZM143.442 22L145.766 8.756H143.806L144.17 6.656H146.13L146.326 5.564C146.942 2.148 148.874 0.607998 152.822 0.607998L152.458 2.736C150.162 2.736 149.238 3.576 148.902 5.564L148.706 6.656H151.926L151.562 8.756H148.342L145.99 22H143.442Z" fill="white"/>
</svg>
