<svg width="149" height="23" viewBox="0 0 149 23" fill="none" xmlns="http://www.w3.org/2000/svg">
<path d="M12.768 16.512C13.188 14.356 11.76 12.984 9.296 12.984H4.872L3.64 19.984H8.148C10.668 19.984 12.404 18.668 12.768 16.512ZM13.832 7.748C14.196 5.76 13.076 4.5 10.612 4.5H6.384L5.236 10.968H9.52C11.9 10.968 13.496 9.736 13.832 7.748ZM15.288 16.764C14.784 19.704 12.04 22 8.008 22H0.728L4.2 2.484H11.2C15.316 2.484 16.968 4.724 16.464 7.44C16.044 9.904 14.28 11.332 12.264 11.948C14.336 12.312 15.708 14.356 15.288 16.764ZM26.8039 8.56C24.2839 8.56 21.8759 10.268 21.0919 13.348H30.8079C31.3679 10.212 29.4359 8.56 26.8039 8.56ZM32.4319 17.268C31.1439 20.068 28.3159 22.252 24.5079 22.252C20.1399 22.252 17.4239 19.172 18.2919 14.3C19.1599 9.456 22.8279 6.404 27.2799 6.404C31.7319 6.404 34.1119 9.54 33.3839 13.684C33.2999 14.216 33.1879 14.664 33.0199 15.196H20.7559C20.3639 18.332 22.2399 20.096 24.8999 20.096C27.1959 20.096 28.8479 18.92 29.6879 17.268H32.4319ZM41.3392 14.636L37.0832 2.484H39.9392L42.9912 12.312L49.5152 2.484H52.3992L43.8872 14.636L42.5712 22H40.0232L41.3392 14.636ZM67.6867 12.816C67.6867 18.08 63.6547 22.252 58.3627 22.252C54.4707 22.252 51.8667 19.704 51.8667 15.868C51.8667 10.632 55.7867 6.404 61.1067 6.404C64.9987 6.404 67.6867 8.924 67.6867 12.816ZM54.4987 15.756C54.4987 18.64 56.3747 20.096 58.6707 20.096C62.3947 20.096 65.0547 16.708 65.0547 12.956C65.0547 9.988 63.0667 8.56 60.7427 8.56C56.9907 8.56 54.4987 11.948 54.4987 15.756ZM85.8489 6.656L83.1329 22H80.5849L80.9769 19.76C79.7169 21.356 77.6729 22.224 75.6569 22.224C72.1289 22.224 69.7489 20.04 70.5049 15.644L72.1009 6.656H74.6209L73.1089 15.308C72.5769 18.416 73.9769 20.012 76.5529 20.012C79.1569 20.012 81.2569 18.388 81.7889 15.084V15.168L83.3009 6.656H85.8489ZM91.467 13.656L89.983 22H87.435L90.151 6.656H92.699L92.195 9.568C93.399 7.608 95.275 6.376 97.711 6.376L97.235 9.008H96.563C94.127 9.008 92.111 10.1 91.467 13.656ZM111.432 16.848C111.32 19.9 108.66 22.196 104.544 22.196C100.708 22.196 98.1043 20.096 98.4683 16.792H100.988C100.876 18.444 101.968 20.124 104.656 20.124C107.092 20.124 108.688 19.032 108.8 17.044C109.108 12.34 99.4763 13.936 99.6723 7.748C99.7003 4.444 102.472 2.232 106.42 2.232C110.34 2.232 112.552 4.388 112.412 7.244H109.752C109.864 5.816 108.716 4.332 106.28 4.332C103.984 4.332 102.36 5.452 102.248 7.328C101.968 11.752 111.74 10.492 111.432 16.848ZM123.081 8.56C120.561 8.56 118.153 10.268 117.369 13.348H127.085C127.645 10.212 125.713 8.56 123.081 8.56ZM128.709 17.268C127.421 20.068 124.593 22.252 120.785 22.252C116.417 22.252 113.701 19.172 114.569 14.3C115.437 9.456 119.105 6.404 123.557 6.404C128.009 6.404 130.389 9.54 129.661 13.684C129.577 14.216 129.465 14.664 129.297 15.196H117.033C116.641 18.332 118.517 20.096 121.177 20.096C123.473 20.096 125.125 18.92 125.965 17.268H128.709ZM131.541 22L135.209 1.28H137.757L134.089 22H131.541ZM138.907 22L141.231 8.756H139.271L139.635 6.656H141.595L141.791 5.564C142.407 2.148 144.339 0.607998 148.287 0.607998L147.923 2.736C145.627 2.736 144.703 3.576 144.367 5.564L144.171 6.656H147.391L147.027 8.756H143.807L141.455 22H138.907Z" fill="white"/>
</svg>
