<svg width="24" height="24" viewBox="0 0 24 24" fill="none" xmlns="http://www.w3.org/2000/svg">
<path opacity="0.4" d="M20.03 6.81994L14.28 2.78994C12.71 1.68994 10.31 1.74994 8.8 2.91994L3.79 6.82994C2.78 7.60994 2 9.20994 2 10.4699V17.3699C2 19.9199 4.07 21.9999 6.61 21.9999H17.38C19.92 21.9999 21.99 19.9299 21.99 17.3799V10.5999C22 9.24994 21.13 7.58994 20.03 6.81994Z" fill="white"/>
<path d="M13.4001 8.51001H10.6001C8.68011 8.51001 7.11011 10.07 7.11011 12V14.79C7.11011 16.71 8.68011 18.28 10.6001 18.28H13.3901C15.3101 18.28 16.8801 16.72 16.8801 14.79V12C16.8801 10.08 15.3201 8.51001 13.4001 8.51001ZM15.4901 12V12.7H12.7001V9.91001H13.4001C14.5501 9.91001 15.4901 10.85 15.4901 12ZM10.6001 9.91001H11.3001V12.7H8.51011V12C8.51011 10.85 9.45011 9.91001 10.6001 9.91001ZM8.51011 14.79V14.09H11.3001V16.88H10.6001C9.45011 16.88 8.51011 15.94 8.51011 14.79ZM13.4001 16.88H12.7001V14.09H15.4901V14.79C15.4901 15.94 14.5501 16.88 13.4001 16.88Z" fill="white"/>
</svg>
