<svg width="32" height="32" viewBox="0 0 32 32" fill="none" xmlns="http://www.w3.org/2000/svg">
<g clip-path="url(#clip0_81_1435)">
<path d="M32 16C32 7.16344 24.8366 0 16 0C7.16344 0 0 7.16344 0 16C0 24.8366 7.16344 32 16 32C24.8366 32 32 24.8366 32 16Z" fill="#5EC1F9"/>
<path d="M15.6666 22C19.1644 22 21.9999 19.1645 21.9999 15.6667C21.9999 12.1689 19.1644 9.33337 15.6666 9.33337C12.1688 9.33337 9.33325 12.1689 9.33325 15.6667C9.33325 19.1645 12.1688 22 15.6666 22Z" stroke="white" stroke-width="2" stroke-linecap="round" stroke-linejoin="round"/>
<path d="M22.6666 22.6667L21.3333 21.3333" stroke="white" stroke-width="2" stroke-linecap="round" stroke-linejoin="round"/>
</g>
<defs>
<clipPath id="clip0_81_1435">
<rect width="32" height="32" fill="white"/>
</clipPath>
</defs>
</svg>
